<svg xmlns="http://www.w3.org/2000/svg" width="14" height="25" fill="none"><path fill="#db0101" d="M13.314 0c.33.254.354.403.12.771l-4.547 7.18c-.047.073-.089.148-.163.27h4.601c.08 0 .172-.021.239.01.137.064.295.13.38.245.108.146.047.323-.071.463l-1.117 1.329-10.198 12.11q-.87 1.034-1.74 2.064-.323.38-.623.19c-.21-.13-.247-.329-.117-.639l4.43-10.522c.037-.088.071-.176.116-.29-.1-.005-.184-.012-.267-.012H.523c-.468 0-.644-.275-.437-.69Q3.119 6.404 6.16.333c.06-.12.17-.222.255-.333h6.898z"/></svg>