<svg xmlns="http://www.w3.org/2000/svg" width="512" height="512"><path d="M460.053 396.359a7.5 7.5 0 0 0 7.5-7.5V73.161a7.5 7.5 0 0 0-7.5-7.5h-24.825V39.825a7.5 7.5 0 0 0-7.5-7.5h-24.825V7.5a7.5 7.5 0 0 0-7.5-7.5H51.947a7.5 7.5 0 0 0-7.5 7.5v431.339a7.5 7.5 0 0 0 7.5 7.5h24.825v24.825a7.5 7.5 0 0 0 7.5 7.5h24.825V504.5a7.5 7.5 0 0 0 7.5 7.5h343.455a7.5 7.5 0 0 0 7.5-7.5v-80.643a7.5 7.5 0 0 0-15 0V497H124.098v-18.335h303.63a7.5 7.5 0 0 0 7.5-7.5V343.512a7.5 7.5 0 0 0-15 0v120.152H91.772v-17.325h303.63a7.5 7.5 0 0 0 7.5-7.5V280.617a7.5 7.5 0 0 0-15 0V431.34H59.447V15h328.455v230.528a7.5 7.5 0 0 0 15 0V47.325h17.325v261.163a7.5 7.5 0 0 0 15 0V80.661h17.325V388.86a7.5 7.5 0 0 0 7.501 7.499"/><path d="M198.85 185.289V45.886a7.5 7.5 0 0 0-7.5-7.5H90.333a7.5 7.5 0 0 0-7.5 7.5v139.402a7.5 7.5 0 0 0 7.5 7.5H191.35a7.5 7.5 0 0 0 7.5-7.499m-15-7.5H97.833V53.386h86.016v124.403zM364.516 45.886a7.5 7.5 0 0 0-7.5-7.5H227.715a7.5 7.5 0 0 0-7.5 7.5v34.346a7.5 7.5 0 0 0 7.5 7.5h129.301a7.5 7.5 0 0 0 7.5-7.5zm-15 26.846H235.215V53.386h114.301zm7.5 36.366H227.715a7.5 7.5 0 0 0 0 15h129.301a7.5 7.5 0 0 0 0-15m0 32.325H227.715a7.5 7.5 0 0 0 0 15h129.301a7.5 7.5 0 0 0 0-15m0 36.366H227.715a7.5 7.5 0 0 0 0 15h129.301a7.5 7.5 0 0 0 0-15m0 36.365H167.105a7.5 7.5 0 0 0 0 15h189.911a7.5 7.5 0 0 0 0-15m-226.276 0H90.333a7.5 7.5 0 0 0 0 15h40.406a7.5 7.5 0 0 0 .001-15m226.276 36.367H167.105a7.5 7.5 0 0 0 0 15h189.911a7.5 7.5 0 0 0 0-15m-226.276 0H90.333a7.5 7.5 0 0 0 0 15h40.406a7.5 7.5 0 0 0 .001-15m226.276 36.365H167.105a7.5 7.5 0 0 0 0 15h189.911a7.5 7.5 0 0 0 0-15m-226.276 0H90.333a7.5 7.5 0 0 0 0 15h40.406a7.5 7.5 0 0 0 .001-15m226.276 36.366H167.105a7.5 7.5 0 0 0 0 15h189.911a7.5 7.5 0 0 0 0-15m-226.276 0H90.333a7.5 7.5 0 0 0 0 15h40.406a7.5 7.5 0 0 0 .001-15m226.276 36.366H167.105a7.5 7.5 0 0 0 0 15h189.911a7.5 7.5 0 0 0 0-15m-226.276 0H90.333a7.5 7.5 0 0 0 0 15h40.406a7.5 7.5 0 0 0 .001-15"/></svg>