<svg xmlns="http://www.w3.org/2000/svg" width="21" height="21" fill="none"><path fill="#fff" d="m19.844 18.82-4.727-4.726c-.117-.078-.234-.156-.351-.156h-.508c1.21-1.407 1.992-3.282 1.992-5.313C16.25 4.172 12.578.5 8.125.5 3.633.5 0 4.172 0 8.625a8.12 8.12 0 0 0 8.125 8.125c2.031 0 3.867-.742 5.313-1.953v.508q0 .176.117.351l4.726 4.727c.196.195.508.195.664 0l.899-.899c.195-.156.195-.468 0-.664M8.125 14.875a6.22 6.22 0 0 1-6.25-6.25 6.243 6.243 0 0 1 6.25-6.25c3.438 0 6.25 2.813 6.25 6.25a6.243 6.243 0 0 1-6.25 6.25"/></svg>