<svg xmlns="http://www.w3.org/2000/svg" width="16" height="22" fill="none"><path fill="#fff" d="m15.679 16.427-1.354-1.384v-5.39c0-3.311-1.725-6.078-4.744-6.806v-.728C9.581 1.228 8.869.5 7.996.5c-.872 0-1.574.728-1.574 1.62v.727c-3.03.728-4.744 3.485-4.744 6.805v5.38L.313 16.428a1.1 1.1 0 0 0-.01 1.527c.201.205.472.318.753.318h13.88c.583 0 1.054-.472 1.064-1.076 0-.288-.11-.564-.321-.77m-3.11-.461H3.484l.04-6.314c-.11-2.48 1.775-4.581 4.202-4.694.09 0 .181-.01.281 0 2.478-.051 4.524 1.958 4.574 4.479v6.529h-.01zM7.997 21.5c1.164 0 2.106-.963 2.106-2.152H5.89c0 1.189.943 2.152 2.106 2.152z"/></svg>