<svg xmlns="http://www.w3.org/2000/svg" viewBox="0 0 440 130"><defs><mask id="mask" width="360.83" height="119.45" x="76.7" y="4.96" maskUnits="userSpaceOnUse"><g id="mask-2"><path id="path-1" d="M76.7 124.4h360.83V4.96H76.7z" class="cls-1"/></g></mask><mask id="mask-9" width="360.83" height="119.45" x="76.7" y="4.96" maskUnits="userSpaceOnUse"><g id="mask-2-10" data-name="mask-2"><path id="path-1-9" d="M76.7 124.4h360.83V4.96H76.7z" class="cls-1" data-name="path-1"/></g></mask><style>.cls-1{fill:#fff;fill-rule:evenodd}.cls-3{mask:url(#mask)}</style></defs><g id="Layer_2" data-name="Layer 2"><g id="Layer_1-2" data-name="Layer 1"><g id="h_beyaz_saydam" data-name="h beyaz saydam"><path id="Rectangle" fill="none" d="M0 0h440v130H0z"/><path id="Fill-1" d="M45.43 4.33v27.3H22.68V4.33H0v78.55h22.68V51.71h22.75v31.17h22.66V4.33z" class="cls-1"/><g id="Group-16"><g class="cls-3"><path id="Fill-2" d="M110.08 20.48h18.38V6.05h-18.38zm-25.46 0H103V6.05H84.62zm51.84 63.85h-21.15V77h-.22q-5.84 8.69-18.71 8.79a20.42 20.42 0 0 1-13.62-4.88Q76.81 76 76.7 66.2V26.62h21.44V56.9a18.8 18.8 0 0 0 1.32 8.16c.91 2.14 3 3.2 6.28 3.2A9.7 9.7 0 0 0 112 66a8.36 8.36 0 0 0 2.34-3.42 18.5 18.5 0 0 0 .68-5.49V26.62h21.46z" class="cls-1"/></g><g class="cls-3"><path id="Fill-4" d="M142.59 26.62h20.61v9.23h.21a21.3 21.3 0 0 1 6.41-8 15.66 15.66 0 0 1 9.43-2.66 23.4 23.4 0 0 1 6.31.86v19.46a20 20 0 0 0-3.39-1.09 30.7 30.7 0 0 0-5.09-.33q-12.94-.21-13.08 17.44v22.8h-21.41z" class="cls-1"/></g><g class="cls-3"><path id="Fill-5" d="M192.33 26.62h20.61v9.23h.21a21.2 21.2 0 0 1 6.42-8 15.62 15.62 0 0 1 9.43-2.64 23.4 23.4 0 0 1 6.3.86v19.44a20 20 0 0 0-3.39-1.09 30.6 30.6 0 0 0-5.09-.33q-12.94-.21-13 17.44v22.8h-21.49z" class="cls-1"/></g><g class="cls-3"><path id="Fill-6" d="M240.27 84.32h21.44v-57.7h-21.44zm0-63.95h21.44V5h-21.44z" class="cls-1"/></g><g class="cls-3"><path id="Fill-7" d="M312.56 79.88q-1.15 3.9-2.81 8.25a38 38 0 0 1-4.23 7.76 17.7 17.7 0 0 1-10.34 6.24 68 68 0 0 1-12.34.87h-9.75V85.42h5.14c1.21 0 2.43 0 3.67-.11a9.8 9.8 0 0 0 3.07-.43 3.7 3.7 0 0 0 1.64-1.52 6.7 6.7 0 0 0 .49-2.83 20.7 20.7 0 0 0-1.26-5.1q-1.3-3.75-3.12-8.42-3.83-10.14-5.42-13.79l-9.67-26.6h23l9 33.09h.22L309 26.62h22.2z" class="cls-1"/></g><g class="cls-3"><path id="Fill-8" d="M369.48 49a10.08 10.08 0 0 0-2.78-6.94 9.74 9.74 0 0 0-7.29-2.78q-10.25.1-11.83 9.72zm-22 11.4a13.83 13.83 0 0 0 3.34 8c1.79 2.18 4.44 3.26 7.95 3.26a13.2 13.2 0 0 0 5.42-1.14 7.7 7.7 0 0 0 3.89-3h20.76a25.38 25.38 0 0 1-11.54 13.82 36.4 36.4 0 0 1-18.08 4.45q-14.09-.11-22.9-7.92-9.21-7.77-9.32-22.21.12-13 8.39-21.71 8.24-8.54 22-8.74 33 .43 32.68 35.23z" class="cls-1"/></g><g class="cls-3"><path id="Fill-9" d="M422.67 26.62h11.53v13.57h-11.53v20.18c-.08 2.65.37 4.57 1.32 5.77s2.7 1.9 5.32 1.9a36 36 0 0 0 4.89-.32v16.61q-6.72.23-13.77.65a41 41 0 0 1-6.72-.54 21.4 21.4 0 0 1-6.19-2.22 12.2 12.2 0 0 1-4.44-5.2 19.4 19.4 0 0 1-1.86-9.19V40.19h-9.59V26.62h9.59V9.08h21.45z" class="cls-1"/></g><g class="cls-3"><path id="Fill-10" d="M322.61 104.57a5.9 5.9 0 0 0-3.93-1.23 7.3 7.3 0 0 0-3.51.77 6.3 6.3 0 0 0-2.26 2 8.4 8.4 0 0 0-1.21 2.92 15.4 15.4 0 0 0-.37 3.42 12.8 12.8 0 0 0 .39 3.17 8.4 8.4 0 0 0 1.21 2.74 6.1 6.1 0 0 0 2.15 1.93 6.5 6.5 0 0 0 3.15.72 6.36 6.36 0 0 0 4.49-1.49 6.77 6.77 0 0 0 2-4.21h4a10.83 10.83 0 0 1-3.26 6.7 10.3 10.3 0 0 1-7.15 2.35 12.2 12.2 0 0 1-4.77-.86 9.14 9.14 0 0 1-3.54-2.4 10.6 10.6 0 0 1-2.1-3.78 15.4 15.4 0 0 1-.71-4.83 16.9 16.9 0 0 1 .69-4.91 11 11 0 0 1 2.08-4 9.6 9.6 0 0 1 3.49-2.67 11.5 11.5 0 0 1 4.88-1 14.3 14.3 0 0 1 3.77.48 9.1 9.1 0 0 1 3.1 1.48 8 8 0 0 1 2.22 2.51 9.3 9.3 0 0 1 1.09 3.6h-4a5.9 5.9 0 0 0-1.92-3.44" class="cls-1"/></g><g mask="url(#mask-9)"><path id="Fill-11" d="M336.42 116a7.9 7.9 0 0 0 1.58 2.77 7 7 0 0 0 2.34 1.7 7.3 7.3 0 0 0 2.86.58 7.2 7.2 0 0 0 2.85-.58 7.1 7.1 0 0 0 2.36-1.7A7.8 7.8 0 0 0 350 116a12.8 12.8 0 0 0 0-7.56 8.2 8.2 0 0 0-1.57-2.79 6.9 6.9 0 0 0-2.36-1.72 7.1 7.1 0 0 0-2.85-.59 7.1 7.1 0 0 0-2.86.59 6.8 6.8 0 0 0-2.34 1.72 8.2 8.2 0 0 0-1.58 2.79 12.8 12.8 0 0 0 0 7.56m-3.95-8.6a11 11 0 0 1 2.19-3.9 10.4 10.4 0 0 1 3.61-2.6 13.2 13.2 0 0 1 9.88 0 10.4 10.4 0 0 1 3.59 2.6 10.8 10.8 0 0 1 2.19 3.9 15.4 15.4 0 0 1 .73 4.82 15.2 15.2 0 0 1-.73 4.8 10.85 10.85 0 0 1-2.19 3.87 10.1 10.1 0 0 1-3.59 2.59 13.6 13.6 0 0 1-9.88 0 10.1 10.1 0 0 1-3.61-2.59 11 11 0 0 1-2.19-3.87 15.2 15.2 0 0 1-.73-4.8 15.4 15.4 0 0 1 .73-4.82" class="cls-1"/></g><g class="cls-3"><path id="Fill-12" d="M362.88 100.49v3.44h.12a9.24 9.24 0 0 1 11.6-3.08 5.13 5.13 0 0 1 2.51 3.08 8.15 8.15 0 0 1 3.09-2.93 8.84 8.84 0 0 1 4.28-1 12.2 12.2 0 0 1 3.21.39 6.9 6.9 0 0 1 2.47 1.2 5.6 5.6 0 0 1 1.6 2.1 7.7 7.7 0 0 1 .57 3.11v17.17h-3.88v-15.42a12 12 0 0 0-.18-2 4.2 4.2 0 0 0-.69-1.66 3.37 3.37 0 0 0-1.39-1.11 5.7 5.7 0 0 0-2.31-.41 6.15 6.15 0 0 0-4.52 1.63 5.85 5.85 0 0 0-1.65 4.35v14.59h-3.87v-15.39a9.6 9.6 0 0 0-.21-2.08 4.5 4.5 0 0 0-.71-1.65 3.2 3.2 0 0 0-1.34-1.09 5.2 5.2 0 0 0-2.17-.39 5.84 5.84 0 0 0-2.9.68 6.6 6.6 0 0 0-2 1.64 6.5 6.5 0 0 0-1.09 2 5.5 5.5 0 0 0-.34 1.7v14.59h-3.89v-23.46z" class="cls-1"/></g><g class="cls-3"><path id="Fill-13" d="M399.04 123.91h5.07v-5.03h-5.07z" class="cls-1"/></g><g class="cls-3"><path id="Fill-14" d="M421 100.49v3.4h-4.71v14.53a4 4 0 0 0 .12 1.09 1.15 1.15 0 0 0 .43.64 1.9 1.9 0 0 0 .89.29 12 12 0 0 0 1.48.07H421v3.4h-3a13.5 13.5 0 0 1-2.57-.21 3.75 3.75 0 0 1-1.74-.74 3.23 3.23 0 0 1-1-1.54 9 9 0 0 1-.32-2.63v-14.9h-4v-3.4h4v-7h3.88v7z" class="cls-1"/></g><g class="cls-3"><path id="Fill-15" d="M428.76 100.49v4.94h.09a10.6 10.6 0 0 1 3.47-4.22 8.9 8.9 0 0 1 5.21-1.27V104a11.1 11.1 0 0 0-4 .63 6.3 6.3 0 0 0-2.65 1.87 7.54 7.54 0 0 0-1.46 3 15.6 15.6 0 0 0-.46 4v10.42h-3.88v-23.43z" class="cls-1"/></g></g></g></g></g></svg>